# xmcd
#
# Track frame offsets: 
#        150
#        15753
#        26778
#        52308
#        69923
#        91680
#        108060
#        132738
#        155048
#        174760
#        190168
#        204098
#
# Disc length: 3095 seconds
#
# Revision: 3
# Processed by: cddbd v1.4PL0 Copyright (c) Steve Scherf et al.
# Submitted via: ExactAudioCopy v0.95a2
#
DISCID=910c150c
DTITLE=Jack Ingram (& the beat up Ford band) - Live At Adair's
DYEAR=1996
DGENRE=Country
TTITLE0=Attitude and Driving
TTITLE1=Able Bodied Man
TTITLE2=Elmo Lincoln
TTITLE3=Run Away With You
TTITLE4=These Days
TTITLE5=Politics and Religion
TTITLE6=Mary Go Round
TTITLE7=Making Plans
TTITLE8=She's Gone
TTITLE9=I'll Catch You When You Fall
TTITLE10=Hang Down Your Head
TTITLE11=Make My Heart Flutter
EXTD=YEAR: 1996 ID3G:   2
EXTT0=
EXTT1=
EXTT2=
EXTT3=
EXTT4=
EXTT5=
EXTT6=
EXTT7=
EXTT8=
EXTT9=
EXTT10=
EXTT11=
PLAYORDER=
